<?xml version="1.0" encoding="UTF-8"?>
<svg width="134px" height="134px" viewBox="0 0 134 134" version="1.1" xmlns="http://www.w3.org/2000/svg" xmlns:xlink="http://www.w3.org/1999/xlink">
    <!-- Generator: Sketch 42 (36781) - http://www.bohemiancoding.com/sketch -->
    <title>data_aquisistion_icon</title>
    <desc>Created with Sketch.</desc>
    <defs></defs>
    <g id="Page-1" stroke="none" stroke-width="1" fill="none" fill-rule="evenodd">
        <g id="data_aquisistion_icon">
            <ellipse id="Oval-Copy-2" fill="#02295E" cx="67" cy="67" rx="55" ry="55"></ellipse>
            <g id="Page-1" transform="translate(28.000000, 41.000000)" fill="#FFFFFF">
                <path d="M68.3148847,47.1215756 L9.38592417,47.1215756 C8.41563858,47.1215756 7.62585154,46.3282 7.62585154,45.3535056 L7.62585154,8.9416499 C7.62585154,8.35427952 8.10040169,7.87757313 8.68511528,7.87757313 C9.27067628,7.87757313 9.74437902,8.35427952 9.74437902,8.9416499 L9.74437902,42.0506114 L30.356804,27.9230769 C32.2668684,26.6138369 34.8285919,26.8215447 36.5047708,28.4236186 L39.8418753,31.6115926 C40.8265669,32.5522365 42.3205525,32.700356 43.467947,31.9708249 L64.3862873,18.6766754 C65.3743686,18.0484445 66.6827711,18.3438322 67.3090079,19.3372543 C67.9335498,20.3306764 67.6394982,21.645024 66.6514169,22.2732549 L44.2229902,36.526776 C42.3222473,37.734716 39.8469598,37.490404 38.2173884,35.9325956 L34.9268915,32.7888872 C33.9150828,31.8227055 32.3685578,31.6967188 31.2152314,32.4883919 L12.9696253,44.9934221 L68.3148847,44.9934221 C68.8995983,44.9934221 69.3741485,45.4701285 69.3741485,46.0574988 C69.3741485,46.6448692 68.8995983,47.1215756 68.3148847,47.1215756 M71.9036703,0 L5.09632972,0 C2.28631486,0 0,2.2967033 0,5.11863489 L0,49.8805139 C0,52.704148 2.28631486,55 5.09632972,55 L71.9036703,55 C74.7136851,55 77,52.704148 77,49.8805139 L77,5.11863489 C77,2.2967033 74.7136851,0 71.9036703,0" id="Fill-1"></path>
            </g>
        </g>
    </g>
</svg>