<?xml version="1.0" encoding="UTF-8"?>
<svg width="47px" height="49px" viewBox="0 0 47 49" version="1.1" xmlns="http://www.w3.org/2000/svg" xmlns:xlink="http://www.w3.org/1999/xlink">
    <!-- Generator: Sketch 42 (36781) - http://www.bohemiancoding.com/sketch -->
    <title>linkedin_icon</title>
    <desc>Created with Sketch.</desc>
    <defs></defs>
    <g id="Page-1" stroke="none" stroke-width="1" fill="none" fill-rule="evenodd" opacity="0.415138134">
        <g id="linkedin_icon" fill="#FFFFFF">
            <g id="linkedIn" transform="translate(7.000000, 8.000000)">
                <path d="M24.6094,23.6465 L21.1794,23.6465 L21.1794,18.1265 C21.1794,16.7405 20.6834,15.7925 19.4414,15.7925 C18.4954,15.7925 17.9294,16.4335 17.6814,17.0485 C17.5904,17.2695 17.5684,17.5745 17.5684,17.8845 L17.5684,23.6465 L14.1394,23.6465 C14.1394,23.6465 14.1834,14.2965 14.1394,13.3305 L17.5684,13.3305 L17.5684,14.7915 C18.0254,14.0855 18.8394,13.0875 20.6604,13.0875 C22.9164,13.0875 24.6094,14.5605 24.6094,17.7305 L24.6094,23.6465 Z M10.5264,11.9195 L10.5044,11.9195 C9.3534,11.9195 8.6094,11.1265 8.6094,10.1365 C8.6094,9.1255 9.3774,8.3535 10.5484,8.3535 C11.7224,8.3535 12.4454,9.1255 12.4664,10.1365 C12.4664,11.1265 11.7224,11.9195 10.5264,11.9195 L10.5264,11.9195 Z M8.8114,23.6465 L12.2424,23.6465 L12.2424,13.3305 L8.8114,13.3305 L8.8114,23.6465 Z M16.6094,0.0005 C7.7724,0.0005 0.6094,7.1645 0.6094,16.0005 C0.6094,24.8375 7.7724,32.0005 16.6094,32.0005 C25.4454,32.0005 32.6094,24.8375 32.6094,16.0005 C32.6094,7.1645 25.4454,0.0005 16.6094,0.0005 L16.6094,0.0005 Z" id="Fill-9"></path>
            </g>
        </g>
    </g>
</svg>