<?xml version="1.0" encoding="UTF-8"?>
<svg width="47px" height="49px" viewBox="0 0 47 49" version="1.1" xmlns="http://www.w3.org/2000/svg" xmlns:xlink="http://www.w3.org/1999/xlink">
    <!-- Generator: Sketch 42 (36781) - http://www.bohemiancoding.com/sketch -->
    <title>twitter_icon</title>
    <desc>Created with Sketch.</desc>
    <defs>
        <polygon id="path-1" points="32.805 32 0.805 32 0.805 0.0003 32.805 0.0003"></polygon>
    </defs>
    <g id="Page-1" stroke="none" stroke-width="1" fill="none" fill-rule="evenodd">
        <g id="twitter_icon">
            <g id="Twitter" transform="translate(7.000000, 9.000000)">
                <mask id="mask-2" fill="white">
                    <use xlink:href="#path-1"></use>
                </mask>
                <g id="Clip-5"></g>
                <path d="M23.167,12.7383 C23.174,12.8793 23.177,13.0193 23.177,13.1623 C23.177,17.5003 19.875,22.5023 13.837,22.5023 C11.982,22.5023 10.258,21.9593 8.805,21.0273 C9.063,21.0563 9.323,21.0723 9.588,21.0723 C11.127,21.0723 12.541,20.5493 13.664,19.6683 C12.229,19.6403 11.016,18.6913 10.599,17.3883 C10.799,17.4253 11.004,17.4473 11.216,17.4473 C11.516,17.4473 11.806,17.4063 12.08,17.3323 C10.58,17.0293 9.447,15.7033 9.447,14.1133 L9.447,14.0723 C9.891,14.3183 10.396,14.4653 10.935,14.4823 C10.054,13.8943 9.475,12.8883 9.475,11.7503 C9.475,11.1483 9.637,10.5843 9.919,10.0993 C11.537,12.0863 13.957,13.3923 16.685,13.5293 C16.629,13.2893 16.6,13.0393 16.6,12.7813 C16.6,10.9683 18.069,9.5003 19.883,9.5003 C20.826,9.5003 21.68,9.8983 22.278,10.5353 C23.025,10.3883 23.729,10.1153 24.363,9.7383 C24.117,10.5063 23.598,11.1483 22.92,11.5543 C23.584,11.4763 24.217,11.2993 24.805,11.0393 C24.365,11.6973 23.809,12.2753 23.167,12.7383 M16.805,0.0003 C7.969,0.0003 0.805,7.1643 0.805,16.0003 C0.805,24.8383 7.969,32.0003 16.805,32.0003 C25.641,32.0003 32.805,24.8383 32.805,16.0003 C32.805,7.1643 25.641,0.0003 16.805,0.0003" id="Fill-4" fill="#FFFFFF" opacity="0.415138134" mask="url(#mask-2)"></path>
            </g>
        </g>
    </g>
</svg>