<svg id="Layer_1" data-name="Layer 1" xmlns="http://www.w3.org/2000/svg" viewBox="0 0 754.22 233.91"><defs><style>.cls-1{fill:#fff;}.cls-2{fill:#1e2d5e;}.cls-3{fill:#5c8fcb;}</style></defs><title>Logo</title><path class="cls-1" d="M169.46,93.17a5.41,5.41,0,0,0-2.62-4.63L121.16,61a5.41,5.41,0,0,0-5.27-.18L70.14,84.29a5.41,5.41,0,0,0-2.94,4.81V143a3.85,3.85,0,0,0,2,3.36l49,27.6a3.85,3.85,0,0,0,3.75,0l45.52-25.09a3.85,3.85,0,0,0,2-3.38Z"/><rect class="cls-2" x="505.31" y="99.96" width="15.02" height="56"/><rect class="cls-3" x="505.31" y="78" width="15.02" height="12.28"/><rect class="cls-2" x="625.8" y="99.96" width="15.02" height="56"/><rect class="cls-3" x="625.8" y="78" width="15.02" height="12.28"/><path class="cls-2" d="M316.31,90.28V78H243.91a7.17,7.17,0,0,0-7.17,7.17v63.62a7.17,7.17,0,0,0,7.17,7.17h72.39V143.67H251.77V121.75h43.88V109.47H251.77V90.28Z"/><path class="cls-2" d="M333.79,100v56h15v-44.6h33a2,2,0,0,1,2,2V156h15V112.06A12.11,12.11,0,0,0,386.69,100Z"/><path class="cls-2" d="M470.89,78v22H428.24a12.11,12.11,0,0,0-12.11,12.11v31.79A12.11,12.11,0,0,0,428.24,156h57.68V78Zm-37.74,66.56a2,2,0,0,1-2-2v-29.2a2,2,0,0,1,2-2l37.74.06v33.07Z"/><path class="cls-2" d="M607.2,100H549.52a12.11,12.11,0,0,0-12.11,12.11v31.79A12.11,12.11,0,0,0,549.52,156h42.65v8.38a2,2,0,0,1-2,2H572.71v11.4h22.38a12.1,12.1,0,0,0,12.11-12.1Zm-52.76,44.6a2,2,0,0,1-2-2v-29.2a2,2,0,0,1,2-2l37.74.06v33.07Z"/><path class="cls-2" d="M679.42,144.56a2,2,0,0,1-2-2v-4.86h0V110.44h18.47V100H677.42v-15h-15v15h-9v10.48h9v15.47h0v17.94A12.11,12.11,0,0,0,674.5,156h22.38v-11.4Z"/><polygon class="cls-2" points="117.89 117.95 105.97 110.43 106.19 124.88 117.89 131.44 117.89 117.95"/><polygon class="cls-3" points="129.95 109.9 118.47 102.66 106.67 108.62 118.37 116.01 129.95 109.9"/><polygon class="cls-2" points="131.78 81.69 120.64 87.36 131.28 94.07 142.72 88.3 131.78 81.69"/><polygon class="cls-2" points="90.93 118.51 79.84 112.3 79.84 124.83 90.93 130.79 90.93 118.51"/><polygon class="cls-2" points="118.78 86.18 129.86 80.54 118.51 73.69 107.74 79.22 118.78 86.18"/><polygon class="cls-2" points="145.82 116.84 156.82 110.68 156.82 97.86 145.82 103.67 145.82 116.84"/><polygon class="cls-2" points="144.64 89.45 133.16 95.25 144.34 102.31 155.86 96.22 144.64 89.45"/><polygon class="cls-2" points="145.82 133.64 145.82 146.25 156.82 140.19 156.82 127.62 145.82 133.64"/><polygon class="cls-2" points="90.93 132.95 79.84 126.99 79.84 138.28 90.93 144.52 90.93 132.95"/><polygon class="cls-2" points="143.92 134.67 132.35 141 132.35 153.68 143.92 147.3 143.92 134.67"/><polygon class="cls-2" points="104.52 140.25 92.83 133.97 92.83 145.59 104.7 152.28 104.52 140.25"/><polygon class="cls-2" points="90.93 116.33 90.93 100.95 90.94 100.95 79.84 93.95 79.84 110.12 90.93 116.33"/><polygon class="cls-2" points="92.39 99.62 104.15 93.63 93.17 86.71 81.46 92.73 92.39 99.62"/><polygon class="cls-2" points="130.45 142.03 119.78 147.86 119.78 160.61 130.45 154.73 130.45 142.03"/><polygon class="cls-2" points="95.14 85.7 106.12 92.63 116.81 87.19 105.78 80.23 95.14 85.7"/><polygon class="cls-2" points="117.89 147.44 106.44 141.28 106.62 153.36 117.89 159.7 117.89 147.44"/><path class="cls-2" d="M118.36,60.19a5.41,5.41,0,0,1,2.8.78l45.69,27.57a5.41,5.41,0,0,1,2.62,4.63v52.29a3.85,3.85,0,0,1-2,3.38L122,173.93a3.85,3.85,0,0,1-3.75,0l-49-27.6a3.86,3.86,0,0,1-2-3.36V89.1a5.41,5.41,0,0,1,2.94-4.81l45.75-23.51a5.4,5.4,0,0,1,2.47-.6m0-8.87a14.34,14.34,0,0,0-6.53,1.58L66.09,76.41a14.22,14.22,0,0,0-7.75,12.7V143A12.74,12.74,0,0,0,64.81,154l49,27.6a12.72,12.72,0,0,0,12.38.05l45.52-25.09a12.72,12.72,0,0,0,6.58-11.14V93.17a14.35,14.35,0,0,0-6.9-12.22L125.74,53.37a14.28,14.28,0,0,0-7.38-2.05Z"/><polygon class="cls-2" points="168.49 120.89 158.97 126.09 158.97 138.9 168.49 133.66 168.49 120.89"/><polygon class="cls-2" points="130.45 111.78 119.78 117.41 119.78 131.41 130.45 125.44 130.45 111.78"/><polygon class="cls-2" points="143.92 104.67 132.35 110.78 132.35 124.38 143.92 117.9 143.92 104.67"/></svg>